# xmcd
#
# Track frame offsets:
#	150
#	16224
#	35106
#	51145
#	65972
#	78856
#	92248
#	103495
#	117396
#
# Disc length: 1735 seconds
#
# Revision: 0
# Processed by: cddbd v1.5.1PL0 Copyright (c) Steve Scherf et al.
# Submitted via: dBpowerAMP V4.0
#
DISCID=7e06c509
DTITLE=Waylon Jennings - Greatest Hits
DYEAR=1979
DGENRE=Country
TTITLE0=Lonesome, On'ry, And Mean
TTITLE1=I've Always Been Crazy
TTITLE2=Honky Tonk Heroes
TTITLE3=Luckenbach, Texas
TTITLE4=I'm A Ramblin' Man
TTITLE5=Amanda
TTITLE6=Mammas Don't Let Your Babies Grow Up To Be Cowboys  with Willie Nelson
TTITLE7=Good Hearted Woman
TTITLE8=Are You Sure Hank Done It This Way
EXTD=
EXTT0=
EXTT1=
EXTT2=
EXTT3=
EXTT4=
EXTT5=
EXTT6=
EXTT7=
EXTT8=
PLAYORDER=
